Coordinates																
version=1																
nRows=25																
nColumns=17																
inDegrees=yes																
																
"Units are S.I. units (second, meters, Newtons, ...)"																
"If the header above contains a line with 'inDegrees', this indicates whether rotational values are in degrees (yes) or radians (no)."																
																
endheader																
time	/jointset/hip_l/hip_flexion_l/value	/jointset/hip_l/hip_adduction_l/value	/jointset/hip_l/hip_rotation_l/value	/jointset/hip_r/hip_flexion_r/value	/jointset/hip_r/hip_adduction_r/value	/jointset/hip_r/hip_rotation_r/value	/jointset/walker_knee_l/knee_angle_l/value	/jointset/walker_knee_l/knee_adduction_l/value	/jointset/walker_knee_r/knee_angle_r/value	/jointset/walker_knee_r/knee_adduction_r/value	/jointset/ankle_l/ankle_angle_l/value	/jointset/ankle_r/ankle_angle_r/value	/jointset/subtalar_l/subtalar_angle_l/value	/jointset/subtalar_r/subtalar_angle_r/value	/jointset/mtp_l/mtp_angle_l/value	/jointset/mtp_r/mtp_angle_r/value
25.01	-25.79606911	-47.07839298	23.420678	41.26768488	0.59583825	2.00560408	11.33733628	26.9856	132.1617581	7.07498	36.83335819	-30.01370931	-10.08798271	-9.99226063	-6.37645017	-8.8472831
25.02	14.41572306	-28.33520935	-17.24199215	110.2184167	-8.37934393	32.29753166	74.36227309	9.4424	38.75113587	22.0635	36.15929356	-40.61635971	-17.52825081	15.62000915	-18.48404623	-30.73644876
25.03	102.3435105	18.40000097	-19.37477901	-14.90351778	-41.01938264	11.82271727	100.5581249	14.5224	105.8621486	-15.2306	29.82212698	-16.74080158	0.95066715	17.28524136	-22.6379351	-25.90693665
25.04	87.59384302	16.41212344	-23.66074682	68.73679526	0.50520531	15.21799245	90.79695152	-4.31868	21.76977552	-22.5856	-11.18023412	-32.43228638	-33.81503816	1.90747125	4.4342393	-34.073309
25.05	77.88375135	7.96275563	13.38526403	72.80105468	7.31480636	-27.6142079	89.65617569	0.616151	46.83766738	-26.595	-33.147039	23.05370759	-0.92602636	14.97752077	-15.17521378	-4.91497308
25.06	52.587074	-39.28339163	10.10387923	1.23663222	-42.10295757	12.52220056	79.77061557	26.5866	103.2417405	-5.03875	-6.82192966	-44.23246342	-27.21452408	12.06773701	-20.99283815	-3.4228022
25.07	95.00893679	-7.7261093	-6.77733714	112.0577497	-36.7613236	-1.51683462	21.82862188	-22.6935	99.68656482	-26.5014	14.52597984	-42.18260503	10.10144102	-27.84879495	-4.9803855	-15.43188746
25.08	63.62144095	-6.43209757	16.13203291	63.01463539	-25.50731644	-12.71240596	137.3908181	-20.1374	95.6282146	-11.0094	22.81269627	-3.61462726	6.60215173	-8.62811366	-22.96501274	-19.4925763
25.09	62.69683319	-16.61110392	-8.96754365	70.55801171	-20.68787761	-18.71559911	101.829263	-12.3973	134.9519353	-21.5718	-39.94959234	-30.65972601	14.95041633	-5.83978137	-39.78903322	-33.36493548
25.1	105.9747353	11.95718026	27.4608115	86.97077968	-34.79268572	22.78811937	97.15097273	-19.6717	10.28765766	6.37929	-31.83619749	45.9091148	18.56756094	28.40458165	-5.21510035	4.52889904
25.11	8.75800713	-47.98484748	-8.67422347	38.04627984	-49.63609151	30.40487174	100.4148279	29.3959	5.51198143	-7.18569	24.86094222	-32.37738804	26.29534659	2.22741369	-25.80438495	-22.33375126
25.12	114.4008489	0.12454095	-0.29621208	-1.74352551	-20.89277018	23.00326282	15.13840875	11.2337	82.24021231	-19.1475	-17.51353818	0.7782456	-6.75974347	-34.34507076	-40.81248398	-8.56285516
25.13	60.46818458	-16.77552775	-8.75202086	-6.21942757	7.462845	19.11538022	46.29598877	-11.0624	63.73048604	-8.29247	-0.8221603	45.58341392	-26.01689054	-16.33498064	-24.0655307	-35.46160297
25.14	75.9284132	-16.64220652	-22.15697311	71.06551295	-22.04201578	28.20317944	71.03060788	-0.115094	113.5211286	18.2037	22.08769274	-11.6712451	0.58163377	-33.3947093	-8.10911686	-28.61459576
25.15	11.2214621	2.75356194	-18.40305629	68.97261432	-9.99021396	-30.41271581	9.98717121	5.27541	79.40643418	-27.3147	-23.84514031	24.55019778	29.77562847	-29.16037032	-15.32759383	-24.58080398
25.16	8.94850579	4.77925554	22.71598355	111.9463579	9.25328036	-30.88142469	116.1456359	9.16106	101.4591011	0.0689635	-23.14872768	-26.95002354	27.58650968	-22.20732172	-13.10051406	4.68385969
25.17	84.73813616	16.86568232	7.02896686	13.430618	15.69876456	11.36776416	114.8671939	-21.6871	14.9289983	12.0913	-15.68214551	-21.83581843	-13.16197798	-8.89470071	-44.43267726	-2.94082838
25.18	27.6611399	5.47566245	21.92093637	35.98750819	-13.18835043	-30.677525	117.4288411	-8.08305	49.15146451	-0.129913	-29.2380686	-31.7177782	-2.03702667	18.30392615	0.69515264	-12.44175655
25.19	55.9502661	-2.13084959	-16.6876289	85.45560042	-27.1519052	6.91200808	90.47810477	-15.3992	135.0482855	5.03616	-19.65276177	36.90776192	8.77637866	12.39654935	1.56555628	-22.87122899
25.2	80.17683951	-19.71935276	16.48060061	-15.47202335	-29.40851195	-14.66586999	91.99172457	12.9544	13.73005218	-18.8191	-27.33093817	23.13079552	-4.58792058	-9.39375765	-22.62673795	-14.6362766
25.21	64.14507423	-38.13566378	-30.2463795	25.16712447	-15.10892219	-14.58020215	106.6848873	-13.4735	131.062958	-8.93879	-49.43281264	-36.50182183	-7.73304394	-0.45879843	-43.40126674	-42.42778729
25.22	10.35068053	-45.8120649	11.29813089	84.11062597	-31.11768668	-22.01934323	0.85790984	-9.63634	42.80007265	-3.27916	21.65683851	8.86512218	15.78661373	23.00711586	-21.03469517	-34.2932254
25.23	6.26629865	-4.4554391	-10.44364687	84.19060514	17.50610365	-19.22386193	0.95975163	-16.1118	105.6038881	-18.4879	24.59044815	-36.15674282	24.4543713	27.61291375	-28.96008858	0.93662638
25.24	48.28132847	-4.09325737	-9.08371441	91.38579956	-0.97379092	34.37751818	19.32429301	-7.64202	15.14743023	-11.961	18.08949783	-32.96298928	-12.96220696	-6.69222513	-8.81900123	-28.43829717
25.25	60.89705276	-0.32570459	-9.13534923	63.93975663	11.29128315	-0.28124943	101.7766063	-27.7707	69.36031183	3.80281	41.28067132	13.55098732	-15.57204738	14.16642633	0.65041723	-36.23653697
